<svg width="22" height="22" viewBox="0 0 22 22" fill="none" xmlns="http://www.w3.org/2000/svg">
<g clip-path="url(#clip0_1339_10773)">
<path d="M11 0C13.9174 0 16.7153 1.15893 18.7782 3.22183C20.8411 5.28473 22 8.08262 22 11C22 13.9174 20.8411 16.7153 18.7782 18.7782C16.7153 20.8411 13.9174 22 11 22C8.08262 22 5.28473 20.8411 3.22183 18.7782C1.15893 16.7153 0 13.9174 0 11C0 8.08262 1.15893 5.28473 3.22183 3.22183C5.28473 1.15893 8.08262 0 11 0ZM2.0625 11C2.0625 13.3704 3.00413 15.6437 4.68023 17.3198C6.35634 18.9959 8.62963 19.9375 11 19.9375C13.3704 19.9375 15.6437 18.9959 17.3198 17.3198C18.9959 15.6437 19.9375 13.3704 19.9375 11C19.9375 8.62963 18.9959 6.35634 17.3198 4.68023C15.6437 3.00413 13.3704 2.0625 11 2.0625C8.62963 2.0625 6.35634 3.00413 4.68023 4.68023C3.00413 6.35634 2.0625 8.62963 2.0625 11ZM11.6875 6.53125V10.6453L14.476 11.7618C14.7217 11.8689 14.9161 12.0675 15.0179 12.3155C15.1197 12.5634 15.1209 12.8413 15.0213 13.0902C14.9218 13.3391 14.7292 13.5394 14.4844 13.6487C14.2396 13.758 13.9619 13.7677 13.7101 13.6757L10.2726 12.3007C10.0816 12.224 9.91782 12.0918 9.80242 11.9213C9.68702 11.7508 9.62523 11.5497 9.625 11.3438V6.53125C9.625 6.25775 9.73365 5.99544 9.92705 5.80205C10.1204 5.60865 10.3827 5.5 10.6562 5.5C10.9298 5.5 11.1921 5.60865 11.3855 5.80205C11.5788 5.99544 11.6875 6.25775 11.6875 6.53125Z" fill="white"/>
</g>
<defs>
<clipPath id="clip0_1339_10773">
<rect width="22" height="22" fill="white"/>
</clipPath>
</defs>
</svg>
