<svg width="15" height="14" viewBox="0 0 15 14" fill="none" xmlns="http://www.w3.org/2000/svg">
<path d="M14.5859 11.3848C15.0078 12.1348 14.4688 13.0488 13.6016 13.0488H2.375C1.50781 13.0488 0.96875 12.1113 1.39062 11.3848L7.01562 1.61133C7.4375 0.861328 8.53906 0.884766 8.96094 1.61133L14.5859 11.3848ZM8 9.3457C7.39062 9.3457 6.92188 9.83789 6.92188 10.4238C6.92188 11.0332 7.39062 11.502 8 11.502C8.58594 11.502 9.07812 11.0332 9.07812 10.4238C9.07812 9.83789 8.58594 9.3457 8 9.3457ZM6.96875 5.47852L7.13281 8.66602C7.15625 8.83008 7.27344 8.92383 7.41406 8.92383H8.5625C8.70312 8.92383 8.82031 8.83008 8.84375 8.66602L9.00781 5.47852C9.03125 5.31445 8.89062 5.17383 8.72656 5.17383H7.25C7.08594 5.17383 6.94531 5.31445 6.96875 5.47852Z" fill="#F04438"/>
</svg>
